<?xml version="1.0" encoding="UTF-8" standalone="no"?>
<!DOCTYPE svg PUBLIC "-//W3C//DTD SVG 1.1//EN"
 "http://www.w3.org/Graphics/SVG/1.1/DTD/svg11.dtd">
<!-- Generated by graphviz version 2.44.0 (0)
 -->
<!-- Title: controllers_diagram Pages: 1 -->
<svg width="514pt" height="368pt"
 viewBox="0.00 0.00 514.00 368.00" xmlns="http://www.w3.org/2000/svg" xmlns:xlink="http://www.w3.org/1999/xlink">
<g id="graph0" class="graph" transform="scale(1 1) rotate(0) translate(4 364)">
<title>controllers_diagram</title>
<polygon fill="transparent" stroke="transparent" points="-4,4 -4,-364 510,-364 510,4 -4,4"/>
<!-- _diagram_info -->
<g id="node1" class="node">
<title>_diagram_info</title>
<text text-anchor="start" x="255" y="-329.6" font-family="Times,serif" font-size="13.00">Controllers diagram</text>
<text text-anchor="start" x="255" y="-315.6" font-family="Times,serif" font-size="13.00">Date: Jun 10 2020 &#45; 13:35</text>
<text text-anchor="start" x="255" y="-301.6" font-family="Times,serif" font-size="13.00">Migration version: 20200610162148</text>
<text text-anchor="start" x="255" y="-287.6" font-family="Times,serif" font-size="13.00">Generated by RailRoady 1.5.3</text>
<text text-anchor="start" x="255" y="-273.6" font-family="Times,serif" font-size="13.00">http://railroady.prestonlee.com</text>
</g>
<!-- ApplicationController -->
<g id="node2" class="node">
<title>ApplicationController</title>
<path fill="none" stroke="black" d="M12,-266.5C12,-266.5 205,-266.5 205,-266.5 211,-266.5 217,-272.5 217,-278.5 217,-278.5 217,-347.5 217,-347.5 217,-353.5 211,-359.5 205,-359.5 205,-359.5 12,-359.5 12,-359.5 6,-359.5 0,-353.5 0,-347.5 0,-347.5 0,-278.5 0,-278.5 0,-272.5 6,-266.5 12,-266.5"/>
<text text-anchor="middle" x="108.5" y="-344.3" font-family="Times,serif" font-size="14.00">ApplicationController</text>
<polyline fill="none" stroke="black" points="0,-336.5 217,-336.5 "/>
<polyline fill="none" stroke="black" points="0,-312.5 217,-312.5 "/>
<text text-anchor="start" x="8" y="-297.3" font-family="Times,serif" font-size="14.00">update_allowed_parameters</text>
<polyline fill="none" stroke="black" points="0,-289.5 217,-289.5 "/>
<text text-anchor="start" x="8" y="-274.3" font-family="Times,serif" font-size="14.00">_layout</text>
</g>
<!-- UsersController -->
<g id="node3" class="node">
<title>UsersController</title>
<path fill="none" stroke="black" d="M202,-19.5C202,-19.5 309,-19.5 309,-19.5 315,-19.5 321,-25.5 321,-31.5 321,-31.5 321,-220.5 321,-220.5 321,-226.5 315,-232.5 309,-232.5 309,-232.5 202,-232.5 202,-232.5 196,-232.5 190,-226.5 190,-220.5 190,-220.5 190,-31.5 190,-31.5 190,-25.5 196,-19.5 202,-19.5"/>
<text text-anchor="middle" x="255.5" y="-217.3" font-family="Times,serif" font-size="14.00">UsersController</text>
<polyline fill="none" stroke="black" points="190,-209.5 321,-209.5 "/>
<text text-anchor="start" x="198" y="-194.3" font-family="Times,serif" font-size="14.00">create</text>
<text text-anchor="start" x="198" y="-179.3" font-family="Times,serif" font-size="14.00">destroy</text>
<text text-anchor="start" x="198" y="-164.3" font-family="Times,serif" font-size="14.00">edit</text>
<text text-anchor="start" x="198" y="-149.3" font-family="Times,serif" font-size="14.00">index</text>
<text text-anchor="start" x="198" y="-134.3" font-family="Times,serif" font-size="14.00">new</text>
<text text-anchor="start" x="198" y="-119.3" font-family="Times,serif" font-size="14.00">show</text>
<text text-anchor="start" x="198" y="-104.3" font-family="Times,serif" font-size="14.00">update</text>
<polyline fill="none" stroke="black" points="190,-96.5 321,-96.5 "/>
<polyline fill="none" stroke="black" points="190,-72.5 321,-72.5 "/>
<text text-anchor="start" x="198" y="-57.3" font-family="Times,serif" font-size="14.00">_layout</text>
<text text-anchor="start" x="198" y="-42.3" font-family="Times,serif" font-size="14.00">set_user</text>
<text text-anchor="start" x="198" y="-27.3" font-family="Times,serif" font-size="14.00">user_params</text>
</g>
<!-- EventsController -->
<g id="node4" class="node">
<title>EventsController</title>
<path fill="none" stroke="black" d="M31,-0.5C31,-0.5 146,-0.5 146,-0.5 152,-0.5 158,-6.5 158,-12.5 158,-12.5 158,-201.5 158,-201.5 158,-207.5 152,-213.5 146,-213.5 146,-213.5 31,-213.5 31,-213.5 25,-213.5 19,-207.5 19,-201.5 19,-201.5 19,-12.5 19,-12.5 19,-6.5 25,-0.5 31,-0.5"/>
<text text-anchor="middle" x="88.5" y="-198.3" font-family="Times,serif" font-size="14.00">EventsController</text>
<polyline fill="none" stroke="black" points="19,-190.5 158,-190.5 "/>
<text text-anchor="start" x="27" y="-175.3" font-family="Times,serif" font-size="14.00">create</text>
<text text-anchor="start" x="27" y="-160.3" font-family="Times,serif" font-size="14.00">destroy</text>
<text text-anchor="start" x="27" y="-145.3" font-family="Times,serif" font-size="14.00">edit</text>
<text text-anchor="start" x="27" y="-130.3" font-family="Times,serif" font-size="14.00">index</text>
<text text-anchor="start" x="27" y="-115.3" font-family="Times,serif" font-size="14.00">new</text>
<text text-anchor="start" x="27" y="-100.3" font-family="Times,serif" font-size="14.00">show</text>
<text text-anchor="start" x="27" y="-85.3" font-family="Times,serif" font-size="14.00">update</text>
<polyline fill="none" stroke="black" points="19,-77.5 158,-77.5 "/>
<polyline fill="none" stroke="black" points="19,-53.5 158,-53.5 "/>
<text text-anchor="start" x="27" y="-38.3" font-family="Times,serif" font-size="14.00">_layout</text>
<text text-anchor="start" x="27" y="-23.3" font-family="Times,serif" font-size="14.00">event_params</text>
<text text-anchor="start" x="27" y="-8.3" font-family="Times,serif" font-size="14.00">set_event</text>
</g>
</g>
</svg>
