<?xml version="1.0" encoding="UTF-8" standalone="no"?>
<!DOCTYPE svg PUBLIC "-//W3C//DTD SVG 1.1//EN"
 "http://www.w3.org/Graphics/SVG/1.1/DTD/svg11.dtd">
<!-- Generated by graphviz version 2.44.0 (0)
 -->
<!-- Title: controllers_diagram Pages: 1 -->
<svg width="483pt" height="582pt"
 viewBox="0.00 0.00 483.00 582.00" xmlns="http://www.w3.org/2000/svg" xmlns:xlink="http://www.w3.org/1999/xlink">
<g id="graph0" class="graph" transform="scale(1 1) rotate(0) translate(4 578)">
<title>controllers_diagram</title>
<polygon fill="transparent" stroke="transparent" points="-4,4 -4,-578 479,-578 479,4 -4,4"/>
<!-- _diagram_info -->
<g id="node1" class="node">
<title>_diagram_info</title>
<text text-anchor="start" x="278" y="-459.6" font-family="Times,serif" font-size="13.00">Controllers diagram</text>
<text text-anchor="start" x="278" y="-445.6" font-family="Times,serif" font-size="13.00">Date: Jun 17 2020 &#45; 15:04</text>
<text text-anchor="start" x="278" y="-431.6" font-family="Times,serif" font-size="13.00">Migration version: 20200616221401</text>
<text text-anchor="start" x="278" y="-417.6" font-family="Times,serif" font-size="13.00">Generated by RailRoady 1.5.3</text>
<text text-anchor="start" x="278" y="-403.6" font-family="Times,serif" font-size="13.00">http://railroady.prestonlee.com</text>
</g>
<!-- UsersController -->
<g id="node2" class="node">
<title>UsersController</title>
<path fill="none" stroke="black" d="M48,-360.5C48,-360.5 128,-360.5 128,-360.5 134,-360.5 140,-366.5 140,-372.5 140,-372.5 140,-561.5 140,-561.5 140,-567.5 134,-573.5 128,-573.5 128,-573.5 48,-573.5 48,-573.5 42,-573.5 36,-567.5 36,-561.5 36,-561.5 36,-372.5 36,-372.5 36,-366.5 42,-360.5 48,-360.5"/>
<text text-anchor="middle" x="88" y="-558.3" font-family="Times,serif" font-size="14.00">UsersController</text>
<polyline fill="none" stroke="black" points="36,-550.5 140,-550.5 "/>
<text text-anchor="start" x="44" y="-535.3" font-family="Times,serif" font-size="14.00">create</text>
<text text-anchor="start" x="44" y="-520.3" font-family="Times,serif" font-size="14.00">destroy</text>
<text text-anchor="start" x="44" y="-505.3" font-family="Times,serif" font-size="14.00">edit</text>
<text text-anchor="start" x="44" y="-490.3" font-family="Times,serif" font-size="14.00">index</text>
<text text-anchor="start" x="44" y="-475.3" font-family="Times,serif" font-size="14.00">new</text>
<text text-anchor="start" x="44" y="-460.3" font-family="Times,serif" font-size="14.00">show</text>
<text text-anchor="start" x="44" y="-445.3" font-family="Times,serif" font-size="14.00">update</text>
<polyline fill="none" stroke="black" points="36,-437.5 140,-437.5 "/>
<polyline fill="none" stroke="black" points="36,-413.5 140,-413.5 "/>
<text text-anchor="start" x="44" y="-398.3" font-family="Times,serif" font-size="14.00">_layout</text>
<text text-anchor="start" x="44" y="-383.3" font-family="Times,serif" font-size="14.00">set_user</text>
<text text-anchor="start" x="44" y="-368.3" font-family="Times,serif" font-size="14.00">user_params</text>
</g>
<!-- ApplicationController -->
<g id="node3" class="node">
<title>ApplicationController</title>
<path fill="none" stroke="black" d="M192,-0.5C192,-0.5 335,-0.5 335,-0.5 341,-0.5 347,-6.5 347,-12.5 347,-12.5 347,-81.5 347,-81.5 347,-87.5 341,-93.5 335,-93.5 335,-93.5 192,-93.5 192,-93.5 186,-93.5 180,-87.5 180,-81.5 180,-81.5 180,-12.5 180,-12.5 180,-6.5 186,-0.5 192,-0.5"/>
<text text-anchor="middle" x="263.5" y="-78.3" font-family="Times,serif" font-size="14.00">ApplicationController</text>
<polyline fill="none" stroke="black" points="180,-70.5 347,-70.5 "/>
<polyline fill="none" stroke="black" points="180,-46.5 347,-46.5 "/>
<text text-anchor="start" x="188" y="-31.3" font-family="Times,serif" font-size="14.00">update_allowed_parameters</text>
<polyline fill="none" stroke="black" points="180,-23.5 347,-23.5 "/>
<text text-anchor="start" x="188" y="-8.3" font-family="Times,serif" font-size="14.00">_layout</text>
</g>
<!-- EventsController -->
<g id="node4" class="node">
<title>EventsController</title>
<path fill="none" stroke="black" d="M192,-126.5C192,-126.5 277,-126.5 277,-126.5 283,-126.5 289,-132.5 289,-138.5 289,-138.5 289,-342.5 289,-342.5 289,-348.5 283,-354.5 277,-354.5 277,-354.5 192,-354.5 192,-354.5 186,-354.5 180,-348.5 180,-342.5 180,-342.5 180,-138.5 180,-138.5 180,-132.5 186,-126.5 192,-126.5"/>
<text text-anchor="middle" x="234.5" y="-339.3" font-family="Times,serif" font-size="14.00">EventsController</text>
<polyline fill="none" stroke="black" points="180,-331.5 289,-331.5 "/>
<text text-anchor="start" x="188" y="-316.3" font-family="Times,serif" font-size="14.00">create</text>
<text text-anchor="start" x="188" y="-301.3" font-family="Times,serif" font-size="14.00">destroy</text>
<text text-anchor="start" x="188" y="-286.3" font-family="Times,serif" font-size="14.00">edit</text>
<text text-anchor="start" x="188" y="-271.3" font-family="Times,serif" font-size="14.00">im_going</text>
<text text-anchor="start" x="188" y="-256.3" font-family="Times,serif" font-size="14.00">index</text>
<text text-anchor="start" x="188" y="-241.3" font-family="Times,serif" font-size="14.00">new</text>
<text text-anchor="start" x="188" y="-226.3" font-family="Times,serif" font-size="14.00">show</text>
<text text-anchor="start" x="188" y="-211.3" font-family="Times,serif" font-size="14.00">update</text>
<polyline fill="none" stroke="black" points="180,-203.5 289,-203.5 "/>
<polyline fill="none" stroke="black" points="180,-179.5 289,-179.5 "/>
<text text-anchor="start" x="188" y="-164.3" font-family="Times,serif" font-size="14.00">_layout</text>
<text text-anchor="start" x="188" y="-149.3" font-family="Times,serif" font-size="14.00">event_params</text>
<text text-anchor="start" x="188" y="-134.3" font-family="Times,serif" font-size="14.00">set_event</text>
</g>
<!-- AppointmentsController -->
<g id="node5" class="node">
<title>AppointmentsController</title>
<path fill="none" stroke="black" d="M12,-108.5C12,-108.5 137,-108.5 137,-108.5 143,-108.5 149,-114.5 149,-120.5 149,-120.5 149,-309.5 149,-309.5 149,-315.5 143,-321.5 137,-321.5 137,-321.5 12,-321.5 12,-321.5 6,-321.5 0,-315.5 0,-309.5 0,-309.5 0,-120.5 0,-120.5 0,-114.5 6,-108.5 12,-108.5"/>
<text text-anchor="middle" x="74.5" y="-306.3" font-family="Times,serif" font-size="14.00">AppointmentsController</text>
<polyline fill="none" stroke="black" points="0,-298.5 149,-298.5 "/>
<text text-anchor="start" x="8" y="-283.3" font-family="Times,serif" font-size="14.00">create</text>
<text text-anchor="start" x="8" y="-268.3" font-family="Times,serif" font-size="14.00">destroy</text>
<text text-anchor="start" x="8" y="-253.3" font-family="Times,serif" font-size="14.00">edit</text>
<text text-anchor="start" x="8" y="-238.3" font-family="Times,serif" font-size="14.00">index</text>
<text text-anchor="start" x="8" y="-223.3" font-family="Times,serif" font-size="14.00">new</text>
<text text-anchor="start" x="8" y="-208.3" font-family="Times,serif" font-size="14.00">show</text>
<text text-anchor="start" x="8" y="-193.3" font-family="Times,serif" font-size="14.00">update</text>
<polyline fill="none" stroke="black" points="0,-185.5 149,-185.5 "/>
<polyline fill="none" stroke="black" points="0,-161.5 149,-161.5 "/>
<text text-anchor="start" x="8" y="-146.3" font-family="Times,serif" font-size="14.00">_layout</text>
<text text-anchor="start" x="8" y="-131.3" font-family="Times,serif" font-size="14.00">appointment_params</text>
<text text-anchor="start" x="8" y="-116.3" font-family="Times,serif" font-size="14.00">set_appointment</text>
</g>
</g>
</svg>
