<?xml version="1.0" encoding="UTF-8" standalone="no"?>
<!DOCTYPE svg PUBLIC "-//W3C//DTD SVG 1.1//EN"
 "http://www.w3.org/Graphics/SVG/1.1/DTD/svg11.dtd">
<!-- Generated by graphviz version 2.44.0 (0)
 -->
<!-- Title: models_diagram Pages: 1 -->
<svg width="656pt" height="158pt"
 viewBox="0.00 0.00 655.65 158.00" xmlns="http://www.w3.org/2000/svg" xmlns:xlink="http://www.w3.org/1999/xlink">
<g id="graph0" class="graph" transform="scale(1 1) rotate(0) translate(4 154)">
<title>models_diagram</title>
<polygon fill="transparent" stroke="transparent" points="-4,4 -4,-154 651.65,-154 651.65,4 -4,4"/>
<!-- _diagram_info -->
<g id="node1" class="node">
<title>_diagram_info</title>
<text text-anchor="start" x="8" y="-135.6" font-family="Times,serif" font-size="13.00">Models diagram</text>
<text text-anchor="start" x="8" y="-121.6" font-family="Times,serif" font-size="13.00">Date: Jun 10 2020 &#45; 13:35</text>
<text text-anchor="start" x="8" y="-107.6" font-family="Times,serif" font-size="13.00">Migration version: 20200610162148</text>
<text text-anchor="start" x="8" y="-93.6" font-family="Times,serif" font-size="13.00">Generated by RailRoady 1.5.3</text>
<text text-anchor="start" x="8" y="-79.6" font-family="Times,serif" font-size="13.00">http://railroady.prestonlee.com</text>
</g>
<!-- Appointment -->
<g id="node2" class="node">
<title>Appointment</title>
<ellipse fill="none" stroke="black" cx="315.5" cy="-18" rx="70.69" ry="18"/>
<text text-anchor="middle" x="315.5" y="-14.3" font-family="Times,serif" font-size="14.00">Appointment</text>
</g>
<!-- ApplicationRecord -->
<g id="node3" class="node">
<title>ApplicationRecord</title>
<ellipse fill="none" stroke="black" cx="467.5" cy="-111" rx="95.58" ry="18"/>
<text text-anchor="middle" x="467.5" y="-107.3" font-family="Times,serif" font-size="14.00">ApplicationRecord</text>
</g>
<!-- User -->
<g id="node4" class="node">
<title>User</title>
<ellipse fill="none" stroke="black" cx="614.5" cy="-111" rx="33.29" ry="18"/>
<text text-anchor="middle" x="614.5" y="-107.3" font-family="Times,serif" font-size="14.00">User</text>
</g>
<!-- Event -->
<g id="node5" class="node">
<title>Event</title>
<ellipse fill="none" stroke="black" cx="315.5" cy="-111" rx="38.19" ry="18"/>
<text text-anchor="middle" x="315.5" y="-107.3" font-family="Times,serif" font-size="14.00">Event</text>
</g>
<!-- Event&#45;&gt;Appointment -->
<g id="edge1" class="edge">
<title>Event&#45;&gt;Appointment</title>
<path fill="none" stroke="#d776f5" d="M315.5,-84.73C315.5,-72.72 315.5,-58.36 315.5,-46.13"/>
<ellipse fill="none" stroke="#d776f5" cx="315.5" cy="-88.88" rx="4" ry="4"/>
<polygon fill="#d776f5" stroke="#d776f5" points="315.5,-46.04 320,-36.04 315.5,-41.04 315.5,-36.04 315.5,-36.04 315.5,-36.04 315.5,-41.04 311,-36.04 315.5,-46.04 315.5,-46.04"/>
</g>
</g>
</svg>
