<?xml version="1.0" encoding="UTF-8" standalone="no"?>
<!DOCTYPE svg PUBLIC "-//W3C//DTD SVG 1.1//EN"
 "http://www.w3.org/Graphics/SVG/1.1/DTD/svg11.dtd">
<!-- Generated by graphviz version 2.44.0 (0)
 -->
<!-- Title: models_diagram Pages: 1 -->
<svg width="962pt" height="333pt"
 viewBox="0.00 0.00 961.50 333.00" xmlns="http://www.w3.org/2000/svg" xmlns:xlink="http://www.w3.org/1999/xlink">
<g id="graph0" class="graph" transform="scale(1 1) rotate(0) translate(4 329)">
<title>models_diagram</title>
<polygon fill="transparent" stroke="transparent" points="-4,4 -4,-329 957.5,-329 957.5,4 -4,4"/>
<!-- _diagram_info -->
<g id="node1" class="node">
<title>_diagram_info</title>
<text text-anchor="start" x="8" y="-258.6" font-family="Times,serif" font-size="13.00">Models diagram</text>
<text text-anchor="start" x="8" y="-244.6" font-family="Times,serif" font-size="13.00">Date: Jun 10 2020 &#45; 13:35</text>
<text text-anchor="start" x="8" y="-230.6" font-family="Times,serif" font-size="13.00">Migration version: 20200610162148</text>
<text text-anchor="start" x="8" y="-216.6" font-family="Times,serif" font-size="13.00">Generated by RailRoady 1.5.3</text>
<text text-anchor="start" x="8" y="-202.6" font-family="Times,serif" font-size="13.00">http://railroady.prestonlee.com</text>
</g>
<!-- Appointment -->
<g id="node2" class="node">
<title>Appointment</title>
<path fill="none" stroke="black" d="M289.5,-0.5C289.5,-0.5 453.5,-0.5 453.5,-0.5 459.5,-0.5 465.5,-6.5 465.5,-12.5 465.5,-12.5 465.5,-94.5 465.5,-94.5 465.5,-100.5 459.5,-106.5 453.5,-106.5 453.5,-106.5 289.5,-106.5 289.5,-106.5 283.5,-106.5 277.5,-100.5 277.5,-94.5 277.5,-94.5 277.5,-12.5 277.5,-12.5 277.5,-6.5 283.5,-0.5 289.5,-0.5"/>
<text text-anchor="middle" x="371.5" y="-91.3" font-family="Times,serif" font-size="14.00">Appointment</text>
<polyline fill="none" stroke="black" points="277.5,-83.5 465.5,-83.5 "/>
<text text-anchor="start" x="285.5" y="-68.3" font-family="Times,serif" font-size="14.00">id :integer</text>
<text text-anchor="start" x="285.5" y="-53.3" font-family="Times,serif" font-size="14.00">attendee_id :integer</text>
<text text-anchor="start" x="285.5" y="-38.3" font-family="Times,serif" font-size="14.00">event_id :integer</text>
<text text-anchor="start" x="285.5" y="-23.3" font-family="Times,serif" font-size="14.00">created_at :datetime(6)</text>
<text text-anchor="start" x="285.5" y="-8.3" font-family="Times,serif" font-size="14.00">updated_at :datetime(6)</text>
</g>
<!-- ApplicationRecord -->
<g id="node3" class="node">
<title>ApplicationRecord</title>
<ellipse fill="none" stroke="black" cx="579.5" cy="-234" rx="95.58" ry="18"/>
<text text-anchor="middle" x="579.5" y="-230.3" font-family="Times,serif" font-size="14.00">ApplicationRecord</text>
</g>
<!-- User -->
<g id="node4" class="node">
<title>User</title>
<path fill="none" stroke="black" d="M705.5,-143.5C705.5,-143.5 941.5,-143.5 941.5,-143.5 947.5,-143.5 953.5,-149.5 953.5,-155.5 953.5,-155.5 953.5,-312.5 953.5,-312.5 953.5,-318.5 947.5,-324.5 941.5,-324.5 941.5,-324.5 705.5,-324.5 705.5,-324.5 699.5,-324.5 693.5,-318.5 693.5,-312.5 693.5,-312.5 693.5,-155.5 693.5,-155.5 693.5,-149.5 699.5,-143.5 705.5,-143.5"/>
<text text-anchor="middle" x="823.5" y="-309.3" font-family="Times,serif" font-size="14.00">User</text>
<polyline fill="none" stroke="black" points="693.5,-301.5 953.5,-301.5 "/>
<text text-anchor="start" x="701.5" y="-286.3" font-family="Times,serif" font-size="14.00">id :integer</text>
<text text-anchor="start" x="701.5" y="-271.3" font-family="Times,serif" font-size="14.00">email :varchar</text>
<text text-anchor="start" x="701.5" y="-256.3" font-family="Times,serif" font-size="14.00">encrypted_password :varchar</text>
<text text-anchor="start" x="701.5" y="-241.3" font-family="Times,serif" font-size="14.00">reset_password_token :varchar</text>
<text text-anchor="start" x="701.5" y="-226.3" font-family="Times,serif" font-size="14.00">reset_password_sent_at :datetime</text>
<text text-anchor="start" x="701.5" y="-211.3" font-family="Times,serif" font-size="14.00">remember_created_at :datetime</text>
<text text-anchor="start" x="701.5" y="-196.3" font-family="Times,serif" font-size="14.00">created_at :datetime(6)</text>
<text text-anchor="start" x="701.5" y="-181.3" font-family="Times,serif" font-size="14.00">updated_at :datetime(6)</text>
<text text-anchor="start" x="701.5" y="-166.3" font-family="Times,serif" font-size="14.00">name :varchar</text>
<text text-anchor="start" x="701.5" y="-151.3" font-family="Times,serif" font-size="14.00">username :varchar</text>
</g>
<!-- Event -->
<g id="node5" class="node">
<title>Event</title>
<path fill="none" stroke="black" d="M289.5,-173.5C289.5,-173.5 453.5,-173.5 453.5,-173.5 459.5,-173.5 465.5,-179.5 465.5,-185.5 465.5,-185.5 465.5,-282.5 465.5,-282.5 465.5,-288.5 459.5,-294.5 453.5,-294.5 453.5,-294.5 289.5,-294.5 289.5,-294.5 283.5,-294.5 277.5,-288.5 277.5,-282.5 277.5,-282.5 277.5,-185.5 277.5,-185.5 277.5,-179.5 283.5,-173.5 289.5,-173.5"/>
<text text-anchor="middle" x="371.5" y="-279.3" font-family="Times,serif" font-size="14.00">Event</text>
<polyline fill="none" stroke="black" points="277.5,-271.5 465.5,-271.5 "/>
<text text-anchor="start" x="285.5" y="-256.3" font-family="Times,serif" font-size="14.00">id :integer</text>
<text text-anchor="start" x="285.5" y="-241.3" font-family="Times,serif" font-size="14.00">date :date</text>
<text text-anchor="start" x="285.5" y="-226.3" font-family="Times,serif" font-size="14.00">location :varchar</text>
<text text-anchor="start" x="285.5" y="-211.3" font-family="Times,serif" font-size="14.00">host_id :integer</text>
<text text-anchor="start" x="285.5" y="-196.3" font-family="Times,serif" font-size="14.00">created_at :datetime(6)</text>
<text text-anchor="start" x="285.5" y="-181.3" font-family="Times,serif" font-size="14.00">updated_at :datetime(6)</text>
</g>
<!-- Event&#45;&gt;Appointment -->
<g id="edge1" class="edge">
<title>Event&#45;&gt;Appointment</title>
<path fill="none" stroke="#ebe2f0" d="M371.5,-164.87C371.5,-148.99 371.5,-132.16 371.5,-116.56"/>
<ellipse fill="none" stroke="#ebe2f0" cx="371.5" cy="-169.07" rx="4" ry="4"/>
<polygon fill="#ebe2f0" stroke="#ebe2f0" points="371.5,-116.51 376,-106.51 371.5,-111.51 371.5,-106.51 371.5,-106.51 371.5,-106.51 371.5,-111.51 367,-106.51 371.5,-116.51 371.5,-116.51"/>
</g>
</g>
</svg>
