<?xml version="1.0" encoding="UTF-8" standalone="no"?>
<!DOCTYPE svg PUBLIC "-//W3C//DTD SVG 1.1//EN"
 "http://www.w3.org/Graphics/SVG/1.1/DTD/svg11.dtd">
<!-- Generated by graphviz version 2.44.0 (0)
 -->
<!-- Title: models_diagram Pages: 1 -->
<svg width="765pt" height="348pt"
 viewBox="0.00 0.00 765.00 348.00" xmlns="http://www.w3.org/2000/svg" xmlns:xlink="http://www.w3.org/1999/xlink">
<g id="graph0" class="graph" transform="scale(1 1) rotate(0) translate(4 344)">
<title>models_diagram</title>
<polygon fill="transparent" stroke="transparent" points="-4,4 -4,-344 761,-344 761,4 -4,4"/>
<!-- _diagram_info -->
<g id="node1" class="node">
<title>_diagram_info</title>
<text text-anchor="start" x="8" y="-273.6" font-family="Times,serif" font-size="13.00">Models diagram</text>
<text text-anchor="start" x="8" y="-259.6" font-family="Times,serif" font-size="13.00">Date: Jun 17 2020 &#45; 15:04</text>
<text text-anchor="start" x="8" y="-245.6" font-family="Times,serif" font-size="13.00">Migration version: 20200616221401</text>
<text text-anchor="start" x="8" y="-231.6" font-family="Times,serif" font-size="13.00">Generated by RailRoady 1.5.3</text>
<text text-anchor="start" x="8" y="-217.6" font-family="Times,serif" font-size="13.00">http://railroady.prestonlee.com</text>
</g>
<!-- ApplicationRecord -->
<g id="node2" class="node">
<title>ApplicationRecord</title>
<ellipse fill="none" stroke="black" cx="300.5" cy="-249" rx="77.19" ry="18"/>
<text text-anchor="middle" x="300.5" y="-245.3" font-family="Times,serif" font-size="14.00">ApplicationRecord</text>
</g>
<!-- Appointment -->
<g id="node3" class="node">
<title>Appointment</title>
<path fill="none" stroke="black" d="M407.5,-0.5C407.5,-0.5 529.5,-0.5 529.5,-0.5 535.5,-0.5 541.5,-6.5 541.5,-12.5 541.5,-12.5 541.5,-109.5 541.5,-109.5 541.5,-115.5 535.5,-121.5 529.5,-121.5 529.5,-121.5 407.5,-121.5 407.5,-121.5 401.5,-121.5 395.5,-115.5 395.5,-109.5 395.5,-109.5 395.5,-12.5 395.5,-12.5 395.5,-6.5 401.5,-0.5 407.5,-0.5"/>
<text text-anchor="middle" x="468.5" y="-106.3" font-family="Times,serif" font-size="14.00">Appointment</text>
<polyline fill="none" stroke="black" points="395.5,-98.5 541.5,-98.5 "/>
<text text-anchor="start" x="403.5" y="-83.3" font-family="Times,serif" font-size="14.00">id :integer</text>
<text text-anchor="start" x="403.5" y="-68.3" font-family="Times,serif" font-size="14.00">attendee_id :integer</text>
<text text-anchor="start" x="403.5" y="-53.3" font-family="Times,serif" font-size="14.00">event_id :integer</text>
<text text-anchor="start" x="403.5" y="-38.3" font-family="Times,serif" font-size="14.00">created_at :datetime(6)</text>
<text text-anchor="start" x="403.5" y="-23.3" font-family="Times,serif" font-size="14.00">updated_at :datetime(6)</text>
<text text-anchor="start" x="403.5" y="-8.3" font-family="Times,serif" font-size="14.00">status :varchar</text>
</g>
<!-- User -->
<g id="node4" class="node">
<title>User</title>
<path fill="none" stroke="black" d="M572,-158.5C572,-158.5 745,-158.5 745,-158.5 751,-158.5 757,-164.5 757,-170.5 757,-170.5 757,-327.5 757,-327.5 757,-333.5 751,-339.5 745,-339.5 745,-339.5 572,-339.5 572,-339.5 566,-339.5 560,-333.5 560,-327.5 560,-327.5 560,-170.5 560,-170.5 560,-164.5 566,-158.5 572,-158.5"/>
<text text-anchor="middle" x="658.5" y="-324.3" font-family="Times,serif" font-size="14.00">User</text>
<polyline fill="none" stroke="black" points="560,-316.5 757,-316.5 "/>
<text text-anchor="start" x="568" y="-301.3" font-family="Times,serif" font-size="14.00">id :integer</text>
<text text-anchor="start" x="568" y="-286.3" font-family="Times,serif" font-size="14.00">email :varchar</text>
<text text-anchor="start" x="568" y="-271.3" font-family="Times,serif" font-size="14.00">encrypted_password :varchar</text>
<text text-anchor="start" x="568" y="-256.3" font-family="Times,serif" font-size="14.00">reset_password_token :varchar</text>
<text text-anchor="start" x="568" y="-241.3" font-family="Times,serif" font-size="14.00">reset_password_sent_at :datetime</text>
<text text-anchor="start" x="568" y="-226.3" font-family="Times,serif" font-size="14.00">remember_created_at :datetime</text>
<text text-anchor="start" x="568" y="-211.3" font-family="Times,serif" font-size="14.00">created_at :datetime(6)</text>
<text text-anchor="start" x="568" y="-196.3" font-family="Times,serif" font-size="14.00">updated_at :datetime(6)</text>
<text text-anchor="start" x="568" y="-181.3" font-family="Times,serif" font-size="14.00">name :varchar</text>
<text text-anchor="start" x="568" y="-166.3" font-family="Times,serif" font-size="14.00">username :varchar</text>
</g>
<!-- Event -->
<g id="node5" class="node">
<title>Event</title>
<path fill="none" stroke="black" d="M407.5,-173.5C407.5,-173.5 529.5,-173.5 529.5,-173.5 535.5,-173.5 541.5,-179.5 541.5,-185.5 541.5,-185.5 541.5,-312.5 541.5,-312.5 541.5,-318.5 535.5,-324.5 529.5,-324.5 529.5,-324.5 407.5,-324.5 407.5,-324.5 401.5,-324.5 395.5,-318.5 395.5,-312.5 395.5,-312.5 395.5,-185.5 395.5,-185.5 395.5,-179.5 401.5,-173.5 407.5,-173.5"/>
<text text-anchor="middle" x="468.5" y="-309.3" font-family="Times,serif" font-size="14.00">Event</text>
<polyline fill="none" stroke="black" points="395.5,-301.5 541.5,-301.5 "/>
<text text-anchor="start" x="403.5" y="-286.3" font-family="Times,serif" font-size="14.00">id :integer</text>
<text text-anchor="start" x="403.5" y="-271.3" font-family="Times,serif" font-size="14.00">date :date</text>
<text text-anchor="start" x="403.5" y="-256.3" font-family="Times,serif" font-size="14.00">location :varchar</text>
<text text-anchor="start" x="403.5" y="-241.3" font-family="Times,serif" font-size="14.00">host_id :integer</text>
<text text-anchor="start" x="403.5" y="-226.3" font-family="Times,serif" font-size="14.00">created_at :datetime(6)</text>
<text text-anchor="start" x="403.5" y="-211.3" font-family="Times,serif" font-size="14.00">updated_at :datetime(6)</text>
<text text-anchor="start" x="403.5" y="-196.3" font-family="Times,serif" font-size="14.00">description :text</text>
<text text-anchor="start" x="403.5" y="-181.3" font-family="Times,serif" font-size="14.00">title :varchar</text>
</g>
<!-- Event&#45;&gt;Appointment -->
<g id="edge1" class="edge">
<title>Event&#45;&gt;Appointment</title>
<path fill="none" stroke="#46c870" d="M468.5,-165.31C468.5,-154.19 468.5,-142.87 468.5,-131.99"/>
<ellipse fill="none" stroke="#46c870" cx="468.5" cy="-169.42" rx="4" ry="4"/>
<polygon fill="#46c870" stroke="#46c870" points="468.5,-131.73 473,-121.73 468.5,-126.73 468.5,-121.73 468.5,-121.73 468.5,-121.73 468.5,-126.73 464,-121.73 468.5,-131.73 468.5,-131.73"/>
</g>
</g>
</svg>
