<?xml version="1.0" encoding="UTF-8" standalone="no"?>
<!DOCTYPE svg PUBLIC "-//W3C//DTD SVG 1.1//EN"
 "http://www.w3.org/Graphics/SVG/1.1/DTD/svg11.dtd">
<!-- Generated by graphviz version 2.44.0 (0)
 -->
<!-- Title: models_diagram Pages: 1 -->
<svg width="538pt" height="158pt"
 viewBox="0.00 0.00 537.80 158.00" xmlns="http://www.w3.org/2000/svg" xmlns:xlink="http://www.w3.org/1999/xlink">
<g id="graph0" class="graph" transform="scale(1 1) rotate(0) translate(4 154)">
<title>models_diagram</title>
<polygon fill="transparent" stroke="transparent" points="-4,4 -4,-154 533.8,-154 533.8,4 -4,4"/>
<!-- _diagram_info -->
<g id="node1" class="node">
<title>_diagram_info</title>
<text text-anchor="start" x="8" y="-135.6" font-family="Times,serif" font-size="13.00">Models diagram</text>
<text text-anchor="start" x="8" y="-121.6" font-family="Times,serif" font-size="13.00">Date: Jun 17 2020 &#45; 15:04</text>
<text text-anchor="start" x="8" y="-107.6" font-family="Times,serif" font-size="13.00">Migration version: 20200616221401</text>
<text text-anchor="start" x="8" y="-93.6" font-family="Times,serif" font-size="13.00">Generated by RailRoady 1.5.3</text>
<text text-anchor="start" x="8" y="-79.6" font-family="Times,serif" font-size="13.00">http://railroady.prestonlee.com</text>
</g>
<!-- ApplicationRecord -->
<g id="node2" class="node">
<title>ApplicationRecord</title>
<ellipse fill="none" stroke="black" cx="300.5" cy="-111" rx="77.19" ry="18"/>
<text text-anchor="middle" x="300.5" y="-107.3" font-family="Times,serif" font-size="14.00">ApplicationRecord</text>
</g>
<!-- Appointment -->
<g id="node3" class="node">
<title>Appointment</title>
<ellipse fill="none" stroke="black" cx="426.5" cy="-18" rx="57.39" ry="18"/>
<text text-anchor="middle" x="426.5" y="-14.3" font-family="Times,serif" font-size="14.00">Appointment</text>
</g>
<!-- User -->
<g id="node4" class="node">
<title>User</title>
<ellipse fill="none" stroke="black" cx="502.5" cy="-111" rx="27.1" ry="18"/>
<text text-anchor="middle" x="502.5" y="-107.3" font-family="Times,serif" font-size="14.00">User</text>
</g>
<!-- Event -->
<g id="node5" class="node">
<title>Event</title>
<ellipse fill="none" stroke="black" cx="426.5" cy="-111" rx="30.59" ry="18"/>
<text text-anchor="middle" x="426.5" y="-107.3" font-family="Times,serif" font-size="14.00">Event</text>
</g>
<!-- Event&#45;&gt;Appointment -->
<g id="edge1" class="edge">
<title>Event&#45;&gt;Appointment</title>
<path fill="none" stroke="#6133ed" d="M426.5,-84.73C426.5,-72.72 426.5,-58.36 426.5,-46.13"/>
<ellipse fill="none" stroke="#6133ed" cx="426.5" cy="-88.88" rx="4" ry="4"/>
<polygon fill="#6133ed" stroke="#6133ed" points="426.5,-46.04 431,-36.04 426.5,-41.04 426.5,-36.04 426.5,-36.04 426.5,-36.04 426.5,-41.04 422,-36.04 426.5,-46.04 426.5,-46.04"/>
</g>
</g>
</svg>
